<svg width="13" height="12" viewBox="0 0 13 12" fill="none" xmlns="http://www.w3.org/2000/svg">
<g clip-path="url(#clip0_804_420)">
<path d="M10.5448 12C9.78112 12 8.21976 11.221 7.07139 10.3904C3.12839 10.4993 0.169731 8.20812 0.169731 5.20666C0.169731 2.32553 3.02088 0 6.58484 0C10.1488 0 13 2.32553 13 5.20666C13 7.08544 11.812 8.75224 10.0244 9.58854C10.2789 10.0869 10.7541 10.7627 11.0087 11.1007C11.3085 11.5016 11.1275 12 10.5448 12ZM9.95083 11.0492C9.99608 11.0663 10.0131 11.032 9.98477 10.9919C9.66798 10.5967 9.21541 10.0009 9.02307 9.63434C8.86467 9.33653 8.90426 9.07302 9.26632 8.90117C11.0426 8.06491 12.0609 6.73029 12.0609 5.20666C12.0609 2.85823 9.63403 0.945105 6.58484 0.945105C3.53002 0.945105 1.10315 2.85823 1.10315 5.20666C1.10315 7.54939 3.53002 9.46253 6.58484 9.46253C6.698 9.46253 6.87337 9.45682 7.09963 9.45105C7.33724 9.45105 7.51826 9.52554 7.73323 9.69735C8.42907 10.2071 9.43603 10.8372 9.95083 11.0492Z" fill="#C02626" fill-opacity="0.85"/>
<path d="M3.9434 6.08882C3.49084 6.08882 3.12313 5.71651 3.12313 5.25828C3.12313 4.80005 3.49084 4.42773 3.9434 4.42773C4.39597 4.42773 4.76367 4.80005 4.76367 5.25828C4.76367 5.71651 4.39597 6.08882 3.9434 6.08882Z" fill="#C02626" fill-opacity="0.85"/>
<path d="M6.58496 6.08882C6.13239 6.08882 5.76469 5.71651 5.76469 5.25828C5.76469 4.80005 6.13239 4.42773 6.58496 4.42773C7.03752 4.42773 7.40527 4.80005 7.40527 5.25828C7.40527 5.71651 7.03752 6.08882 6.58496 6.08882Z" fill="#C02626" fill-opacity="0.85"/>
<path d="M9.22074 6.08882C8.77383 6.08882 8.40612 5.71651 8.40612 5.25828C8.40612 4.80005 8.77948 4.42773 9.22074 4.42773C9.67331 4.42773 10.041 4.80005 10.041 5.25828C10.041 5.71651 9.67331 6.08882 9.22074 6.08882Z" fill="#C02626" fill-opacity="0.85"/>
</g>
<defs>
<clipPath id="clip0_804_420">
<rect width="13" height="12" fill="white" transform="matrix(-1 0 0 1 13 0)"/>
</clipPath>
</defs>
</svg>
