<svg width="33" height="32" viewBox="0 0 33 32" fill="none" xmlns="http://www.w3.org/2000/svg">
<g clip-path="url(#clip0_804_501)">
<path d="M21.7454 6.71389H8.56443C7.20557 6.71389 6.44461 7.43801 6.44461 8.83261V24.0526C6.44461 25.4472 7.20557 26.1579 8.56443 26.1579H24.0419C25.4008 26.1579 26.1481 25.4472 26.1481 24.0526V11.1632L28.3359 9.00032V24.1599C28.3359 26.9357 26.9091 28.3168 24.069 28.3168H8.52367C5.69723 28.3168 4.25684 26.9357 4.25684 24.1599V8.71193C4.25684 5.94954 5.69723 4.55493 8.52367 4.55493H23.9331L21.7454 6.71389Z" fill="white"/>
<path d="M13.4693 19.6273L16.1191 18.4875L28.8109 5.97622L26.9492 4.16592L14.271 16.6772L13.048 19.1982C12.9394 19.4261 13.2112 19.7345 13.4693 19.6273ZM29.8164 4.99732L30.7948 4.005C31.2569 3.52225 31.2569 2.87859 30.7948 2.43607L30.4823 2.11424C30.061 1.69854 29.3952 1.75217 28.9468 2.18128L27.9548 3.14678L29.8164 4.99732Z" fill="white"/>
</g>
<defs>
<clipPath id="clip0_804_501">
<rect width="33" height="32" fill="white"/>
</clipPath>
</defs>
</svg>
